# xmcd
#
# Track frame offsets:
#	150
#	17544
#	36799
#	52078
#	65748
#	81661
#	96339
#	112752
#	135725
#	153895
#	173657
#	191439
#	206031
#	223321
#	247565
#	271482
#	286379
#	307001
#	325055
#	341507
#
# Disc length: 4761 seconds
#
# Revision: 1
# Processed by: cddbd v1.5.2PL0 Copyright (c) Steve Scherf et al.
# Submitted via: audiograbber 1.83.01
#
DISCID=25129714
DTITLE=Fernando and Sorocaba - Bala De Prata
DYEAR=2008
DGENRE=Sertanejo
TTITLE0=Bala De Prata
TTITLE1=Vem Ficar Do Meu Lado
TTITLE2=Ah, Como Eu Amo Você
TTITLE3=Chorei Largado
TTITLE4=Juliana
TTITLE5=Aqui A Tristeza Pula De Alegria 
TTITLE6=Ouro E Diamante
TTITLE7=Noite Enluarada
TTITLE8=Sonhos
TTITLE9=Volta Pro Seu Lugar
TTITLE10=Rei E Rainha
TTITLE11=Procurando Amor
TTITLE12=O Amor
TTITLE13=Take Me Home, Country Roads, Dixieland Delight 
TTITLE14=Não Sei Como Viver, Luz Da Minha Manhã
TTITLE15=Do Inferno Ao Paraíso
TTITLE16=Companheiro
TTITLE17=Só Não Muda
TTITLE18=Minha Paixão E A Estrada
TTITLE19=Mulher Do Paraná
EXTD=
EXTT0=
EXTT1=
EXTT2=
EXTT3=
EXTT4=
EXTT5=
EXTT6=
EXTT7=
EXTT8=
EXTT9=
EXTT10=
EXTT11=
EXTT12=
EXTT13=
EXTT14=
EXTT15=
EXTT16=
EXTT17=
EXTT18=
EXTT19=
PLAYORDER=
